Sweet Sinner - My Mother's Best Friend 2 (2010)

Cover: 
http://imagebb.org/view.php?filename=226DVD2SWS_10058.jpg

Preview: 
http://imagebb.org/view.php?filename=740Sweet_Sinner_My_Mother.jpg

Info:
Format                           : Windows Media
File size                        : 1.77 GiB
Duration                         : 1h 59mn
Overall bit rate mode            : Constant
Overall bit rate                 : 2 116 Kbps
Maximum Overall bit rate         : 4 162 Kbps
Encoded date                     : UTC 2011-09-27 20:00:56.573

Video
ID                               : 2
Format                           : WMV1
Codec ID                         : WMV1
Codec ID/Info                    : Windows Media Video 7
Description of the codec         : Windows Media Video V7
Duration                         : 1h 59mn
Bit rate mode                    : Constant
Bit rate                         : 4 000 Kbps
Width                            : 848 pixels
Height                           : 476 pixels
Display aspect ratio             : 16:9
Frame rate                       : 29.970 fps
Bit depth                        : 8 bits
Bits/(Pixel*Frame)               : 0.331
Stream size                      : 3.35 GiB

Audio
ID                               : 1
Format                           : WMA
Format profile                   : Pro
Codec ID                         : 162
Codec ID/Info                    : Windows Media Audio
Description of the codec         : Windows Media Audio 10 Professional - 128 kbps, 44 kHz, 2 channel 16 bit 1-pass CBR
Duration                         : 1h 59mn
Bit rate mode                    : Constant
Bit rate                         : 128 Kbps
Channel(s)                       : 2 channels
Sampling rate                    : 44.1 KHz
Bit depth                        : 16 bits
Stream size                      : 110 MiB (6%)

